<svg xmlns="http://www.w3.org/2000/svg" viewBox="0 0 494.01 494.01"><defs></defs><title>EPPSA_Assets</title><path class="cls-1" d="M129.88,0H12A12,12,0,0,0,0,12V129.88a12,12,0,0,0,24,0V24H129.88a12,12,0,0,0,0-24Z"/><path class="cls-1" d="M482,0H364.12a12,12,0,0,0,0,24H470V128.25a12,12,0,0,0,24,0V12A12,12,0,0,0,482,0Z"/><path class="cls-1" d="M482,357.76a12,12,0,0,0-12,12V470H368.18a12,12,0,0,0,0,24H482a12,12,0,0,0,12-12V369.76A12,12,0,0,0,482,357.76Z"/><path class="cls-1" d="M125.82,470H24V368.18a12,12,0,0,0-24,0V482a12,12,0,0,0,12,12H125.82a12,12,0,0,0,0-24Z"/></svg>
